<svg xmlns="http://www.w3.org/2000/svg" version="1.1" xmlns:xlink="http://www.w3.org/1999/xlink" width="1500" height="1500" viewBox="0 0 1500 1500"><rect width="1500" height="1500" x="0" y="0" id="background" stroke="transparent" fill="#ffffff"></rect><svg xml:space="preserve" width="1000" height="1000" data-version="2" data-id="lg_gmjxjrV4POKeZXjisI" viewBox="0 0 571 571" x="250" y="250"><rect width="100%" height="100%" fill="transparent"></rect><circle r="50" fill="#ffa96a" transform="matrix(5.6 0 0 5.6 285.5 285.5)"></circle><circle r="50" fill="none" stroke="#fff" stroke-width="2" paint-order="stroke" transform="translate(285.5 285.5)scale(4.6994)"></circle><path fill="#fff" d="M205.56 198.12h93.36q17.11 0 29.8 3.63 12.69 3.63 21.08 10.01 8.39 6.37 12.47 15.15 4.08 8.78 4.08 18.95 0 16.66-10.51 29.19 12.07 7.15 18 18.56 5.93 11.4 5.93 25.94 0 12.19-4.09 22.03-4.08 9.84-12.41 16.82-8.33 6.99-21.02 10.74-12.69 3.74-29.91 3.74H205.56Zm107 67.09q4.59 0 8.95.33 7.49-7.16 7.49-16.32 0-9.51-7.43-14.71-7.44-5.2-21.75-5.2H241v35.9Zm.68 76.81q14.31 0 21.74-6.15 7.44-6.15 7.44-17.33 0-11.18-7.44-17.44-7.43-6.26-21.74-6.26H241v47.18Z"></path><rect width="174.21" height="174.76" x="-87.11" y="-87.38" fill="none" rx="0" ry="0" transform="translate(293.17 286)"></rect><path fill="#fff" d="M146.693 283.941H115.43a1.042 1.042 0 0 0-1.042 1.042v30.221a1.042 1.042 0 0 0 1.042 1.042h31.263a1.042 1.042 0 0 0 1.042-1.042v-30.22a1.042 1.042 0 0 0-1.042-1.043m-1.042 5.732a1.563 1.563 0 1 1-3.126 0v-3.648h3.126Zm-5.21 0a1.563 1.563 0 1 1-3.127 0v-3.648h3.127Zm-5.211 0a1.563 1.563 0 1 1-3.126 0v-3.648h3.126Zm-5.21 0a1.563 1.563 0 1 1-3.127 0v-3.648h3.127Zm-5.211 0a1.563 1.563 0 1 1-3.126 0v-3.648h3.126Zm-8.337-3.648h3.127v3.648a1.563 1.563 0 1 1-3.127 0Zm4.169 28.137v-10.421h6.252v10.421Zm8.336 0v-11.463a1.042 1.042 0 0 0-1.042-1.042h-8.337a1.042 1.042 0 0 0-1.042 1.042v11.463h-2.084v-21.208a3.591 3.591 0 0 0 4.169-.737 3.63 3.63 0 0 0 5.21 0 3.63 3.63 0 0 0 5.21 0 3.63 3.63 0 0 0 5.211 0 3.63 3.63 0 0 0 5.21 0 3.591 3.591 0 0 0 4.169.737v21.208Zm-24.906-5.21a1.042 1.042 0 0 0 1.006-.773l2.797-10.42v-.008l.887-3.389h3.543v-2.084h-4.35a1.042 1.042 0 0 0-1.009.78l-.883 3.388H87.293a1.042 1.042 0 0 0-1.006 1.312l2.796 10.421a1.042 1.042 0 0 0 1.006.773h1.894v1.233a3.126 3.126 0 1 0 2.084 0v-1.233h6.253v1.233a3.126 3.126 0 1 0 2.084 0v-1.233Zm-11.046 5.21a1.042 1.042 0 1 1 0-2.084 1.042 1.042 0 0 1 0 2.084m8.337 0a1.042 1.042 0 1 1 0-2.084 1.042 1.042 0 0 1 0 2.084m-12.714-15.631h16.86l-2.236 8.336H90.889Zm51.792-34.39h-5.271a9.379 9.379 0 0 0-18.635 0h-8.452a11.463 11.463 0 1 0-17.178 10.932c.013.008.022.02.036.028.013.008.034.016.05.025.824.471 1.701.838 2.614 1.091.086.024.172.045.259.067q.544.137 1.108.222c.104.016.208.035.318.049.917.122 1.848.122 2.766 0 .104-.014.209-.033.319-.05q.565-.084 1.108-.221c.086-.022.173-.043.258-.067a11.4 11.4 0 0 0 2.614-1.091c.017-.01.034-.016.05-.025.018-.01.024-.02.036-.028a11.463 11.463 0 0 0 5.642-8.848h8.452a9.379 9.379 0 0 0 18.635 0h4.23V278.3l-2.39-2.39-1.474 1.474 4.169 4.169a1.042 1.042 0 0 0 1.473 0l4.169-4.169-1.474-1.473-2.39 2.39v-13.117a1.042 1.042 0 0 0-1.042-1.042m-43.768 2.084a3.126 3.126 0 1 1 0-6.252 3.126 3.126 0 0 1 0 6.252m-.892 2.085h1.784a3.28 3.28 0 0 1 3.277 3.276v1.986l-.073.036a8.844 8.844 0 0 1-.882.375l-.075.027a9.495 9.495 0 0 1-6.278 0l-.075-.027a8.844 8.844 0 0 1-.881-.375l-.073-.036v-1.986a3.28 3.28 0 0 1 3.276-3.276m7.145 3.844v-.568a5.342 5.342 0 0 0-2.752-4.654 5.21 5.21 0 1 0-7.001 0 5.342 5.342 0 0 0-2.752 4.654v.568a9.379 9.379 0 1 1 12.505 0m15.631-6.97a7.295 7.295 0 0 1 6.253-7.212v2.041a3.342 3.342 0 0 0-2.346 3.165c0 2.353 1.855 2.918 3.083 3.296 1.368.417 1.609.614 1.609 1.307a1.305 1.305 0 0 1-2.605 0h-2.085a3.341 3.341 0 0 0 2.344 3.165v1.449a7.295 7.295 0 0 1-6.253-7.212m8.337 7.21v-1.448a3.341 3.341 0 0 0 2.346-3.165c0-2.357-1.856-2.924-3.085-3.3-1.367-.417-1.607-.613-1.607-1.303a1.305 1.305 0 0 1 2.606 0h2.084a3.342 3.342 0 0 0-2.344-3.165v-2.041a7.285 7.285 0 0 1 0 14.423"></path><path fill="#fff" d="M97.714 294.362v-12.074l2.39 2.39 1.473-1.474-4.168-4.168a1.042 1.042 0 0 0-1.473 0l-4.169 4.168 1.474 1.474 2.39-2.39v12.074Zm44.81 1.042h-10.42a1.042 1.042 0 0 0-1.042 1.042v7.295a1.042 1.042 0 0 0 1.042 1.042h10.42a1.042 1.042 0 0 0 1.043-1.042v-7.295a1.042 1.042 0 0 0-1.042-1.042m-1.041 7.295h-8.337v-5.21h8.337Zm339.39-18.758h-31.263a1.042 1.042 0 0 0-1.042 1.042v30.221a1.042 1.042 0 0 0 1.042 1.042h31.263a1.042 1.042 0 0 0 1.042-1.042v-30.22a1.042 1.042 0 0 0-1.042-1.043m-1.042 5.732a1.563 1.563 0 1 1-3.126 0v-3.648h3.126Zm-5.21 0a1.563 1.563 0 1 1-3.127 0v-3.648h3.126Zm-5.211 0a1.563 1.563 0 1 1-3.126 0v-3.648h3.126Zm-5.21 0a1.563 1.563 0 1 1-3.127 0v-3.648h3.126Zm-5.211 0a1.563 1.563 0 1 1-3.126 0v-3.648h3.126Zm-8.337-3.648h3.126v3.648a1.563 1.563 0 1 1-3.126 0Zm4.169 28.137v-10.421h6.252v10.421Zm8.336 0v-11.463a1.042 1.042 0 0 0-1.042-1.042h-8.337a1.042 1.042 0 0 0-1.042 1.042v11.463h-2.084v-21.208a3.591 3.591 0 0 0 4.169-.737 3.63 3.63 0 0 0 5.21 0 3.63 3.63 0 0 0 5.21 0 3.63 3.63 0 0 0 5.211 0 3.63 3.63 0 0 0 5.21 0 3.591 3.591 0 0 0 4.169.737v21.208Zm-24.906-5.21a1.042 1.042 0 0 0 1.006-.773l2.797-10.42v-.008l.887-3.389h3.543v-2.084h-4.35a1.042 1.042 0 0 0-1.009.78l-.883 3.388h-18.769a1.042 1.042 0 0 0-1.006 1.312l2.796 10.421a1.042 1.042 0 0 0 1.006.773h1.894v1.233a3.126 3.126 0 1 0 2.084 0v-1.233h6.253v1.233a3.126 3.126 0 1 0 2.084 0v-1.233Zm-11.046 5.21a1.042 1.042 0 1 1 0-2.084 1.042 1.042 0 0 1 0 2.084m8.337 0a1.042 1.042 0 1 1 0-2.084 1.042 1.042 0 0 1 0 2.084m-12.714-15.631h16.86l-2.236 8.336H425.07Zm51.792-34.39h-5.271a9.379 9.379 0 0 0-18.635 0h-8.452a11.463 11.463 0 1 0-17.178 10.932c.013.008.022.02.036.028.013.008.034.016.05.025.824.471 1.701.838 2.614 1.091.086.024.172.045.259.067q.544.137 1.108.222c.104.016.208.035.318.049.917.122 1.848.122 2.766 0 .104-.014.209-.033.319-.05q.565-.084 1.108-.221c.086-.022.173-.043.258-.067a11.4 11.4 0 0 0 2.614-1.091c.017-.01.034-.016.05-.025.018-.01.024-.02.036-.028a11.463 11.463 0 0 0 5.642-8.848h8.452a9.379 9.379 0 0 0 18.635 0h4.23V278.3l-2.39-2.39-1.474 1.474 4.169 4.169a1.042 1.042 0 0 0 1.473 0l4.169-4.169-1.474-1.473-2.39 2.39v-13.117a1.042 1.042 0 0 0-1.042-1.042m-43.768 2.084a3.126 3.126 0 1 1 0-6.252 3.126 3.126 0 0 1 0 6.252m-.892 2.085h1.784a3.28 3.28 0 0 1 3.277 3.276v1.986l-.073.036a8.844 8.844 0 0 1-.882.375l-.075.027a9.495 9.495 0 0 1-6.278 0l-.075-.027a8.844 8.844 0 0 1-.881-.375l-.073-.036v-1.986a3.28 3.28 0 0 1 3.276-3.276m7.145 3.844v-.568a5.342 5.342 0 0 0-2.752-4.654 5.21 5.21 0 1 0-7.001 0 5.342 5.342 0 0 0-2.752 4.654v.568a9.379 9.379 0 1 1 12.505 0m15.631-6.97a7.295 7.295 0 0 1 6.253-7.212v2.041a3.342 3.342 0 0 0-2.346 3.165c0 2.353 1.855 2.918 3.083 3.296 1.368.417 1.609.614 1.609 1.307a1.305 1.305 0 0 1-2.605 0h-2.085a3.341 3.341 0 0 0 2.344 3.165v1.449a7.295 7.295 0 0 1-6.253-7.212m8.337 7.21v-1.448a3.341 3.341 0 0 0 2.346-3.165c0-2.357-1.856-2.924-3.085-3.3-1.367-.417-1.607-.613-1.607-1.303a1.305 1.305 0 0 1 2.606 0h2.084a3.342 3.342 0 0 0-2.344-3.165v-2.041a7.285 7.285 0 0 1 0 14.423"></path><path fill="#fff" d="M431.895 294.362v-12.074l2.39 2.39 1.473-1.474-4.168-4.168a1.042 1.042 0 0 0-1.473 0l-4.169 4.168 1.474 1.474 2.39-2.39v12.074Zm44.81 1.042h-10.42a1.042 1.042 0 0 0-1.042 1.042v7.295a1.042 1.042 0 0 0 1.042 1.042h10.42a1.042 1.042 0 0 0 1.043-1.042v-7.295a1.042 1.042 0 0 0-1.042-1.042m-1.041 7.295h-8.337v-5.21h8.337ZM261.64 455.99q-.13.28-.43.81-.31.53-.73 1.21l-.9 1.48q-.49.79-.98 1.57l-.95 1.51q-.46.72-.8 1.28l-.56.88-.21.33q0 .02.13.02.19 0 .64-.04.44-.04 1.02-.09.58-.05 1.25-.12.67-.07 1.32-.12.65-.05 1.22-.09.58-.04.96-.04.82 0 .82.36 0 .22-.12.45-.12.22-.12.25l-2.32 4.34q-.03 0-.04.07-.01.07-.04.07-.32.33-.59.36-.28.03-.47.06-1.37.02-2.42.03-1.05.02-1.89.03-.85.01-1.53.02-.69 0-1.34.01-.65.01-1.31.01h-1.45q-1.55 0-2.15-.24-.61-.24-.61-.71 0-.32.22-.73.22-.4.56-.91l2.09-2.98q1.06-1.5 2.03-2.89.97-1.39 1.77-2.57.81-1.18 1.34-2.01.42-.67.61-1.26.2-.59.2-1.1 0-.65-.27-1.15-.27-.5-.74-.84-.48-.35-1.11-.53-.62-.18-1.35-.18-.92 0-1.87.29-.95.28-1.87.87-.32.21-.51.21-.18 0-.24-.14-.05-.15-.05-.28 0-.62.16-1.46t.36-1.61q.2-.78.36-1.34.16-.56.16-.64.04 0 .44-.3t1.26-.66q.85-.37 2.21-.67 1.36-.31 3.33-.31 1.16 0 2.33.48 1.17.47 2.09 1.31.93.84 1.51 1.97.58 1.14.58 2.45 0 .78-.24 1.6-.24.81-.76 1.68"></path><rect width="16.4" height="24.14" x="-8.2" y="-12.07" fill="none" rx="0" ry="0" transform="translate(255.74 459.07)"></rect><path fill="#fff" d="M265.91 459.63q0-2.75.78-5.15.78-2.4 2.34-4.18 1.55-1.78 3.88-2.8 2.33-1.01 5.44-1.01 1.95 0 3.56.45 1.61.46 2.87 1.28 1.26.81 2.19 1.94.93 1.13 1.55 2.46.61 1.33.91 2.81.3 1.48.3 3.01 0 3.05-.89 5.46-.89 2.4-2.5 4.07-1.61 1.67-3.87 2.55-2.25.88-4.99.88-2.55 0-4.67-.83-2.13-.83-3.66-2.37-1.53-1.54-2.39-3.71-.85-2.17-.85-4.86m6.96-.62q0 1.28.2 2.61.2 1.32.74 2.4.53 1.08 1.45 1.75.93.68 2.36.68 1.04 0 1.83-.35.79-.36 1.37-.96.58-.61.98-1.41.4-.79.64-1.7.24-.9.35-1.85.1-.95.1-1.84 0-.72-.1-1.53-.11-.8-.33-1.6-.23-.8-.6-1.51-.37-.72-.88-1.28-.52-.55-1.21-.87-.7-.33-1.58-.33-1.05 0-1.85.33-.79.33-1.39.9-.6.56-.99 1.32-.4.76-.64 1.62-.24.86-.34 1.79-.11.92-.11 1.83"></path><rect width="23.82" height="24.91" x="-11.91" y="-12.46" fill="none" rx="0" ry="0" transform="translate(278.32 459.44)"></rect><path fill="#fff" d="M306.13 455.99q-.13.28-.44.81-.3.53-.72 1.21l-.9 1.48q-.49.79-.98 1.57l-.95 1.51q-.46.72-.8 1.28l-.56.88-.21.33q0 .02.13.02.19 0 .64-.04.44-.04 1.02-.09.58-.05 1.25-.12.67-.07 1.32-.12.65-.05 1.22-.09.58-.04.96-.04.82 0 .82.36 0 .22-.12.45-.12.22-.12.25l-2.32 4.34q-.03 0-.04.07-.01.07-.04.07-.32.33-.6.36-.27.03-.46.06-1.37.02-2.42.03-1.05.02-1.89.03-.85.01-1.53.02-.69 0-1.34.01-.65.01-1.31.01h-1.45q-1.55 0-2.16-.24-.6-.24-.6-.71 0-.32.22-.73.22-.4.55-.91 1.04-1.47 2.1-2.98 1.06-1.5 2.03-2.89.97-1.39 1.77-2.57.81-1.18 1.34-2.01.42-.67.61-1.26t.19-1.1q0-.65-.26-1.15-.27-.5-.74-.84-.48-.35-1.11-.53-.62-.18-1.35-.18-.92 0-1.87.29-.95.28-1.87.87-.32.21-.51.21-.18 0-.24-.14-.05-.15-.05-.28 0-.62.16-1.46t.36-1.61q.2-.78.36-1.34.16-.56.16-.64.04 0 .44-.3t1.26-.66q.85-.37 2.21-.67 1.36-.31 3.33-.31 1.16 0 2.33.48 1.16.47 2.09 1.31.93.84 1.51 1.97.58 1.14.58 2.45 0 .78-.24 1.6-.25.81-.76 1.68"></path><rect width="16.4" height="24.14" x="-8.2" y="-12.07" fill="none" rx="0" ry="0" transform="translate(300.23 459.07)"></rect><path fill="#fff" d="M310.46 466.1q.04-.09.16-.18.12-.1.31-.1h.1q.63.1 1.17.12.54.03 1.28.03.82 0 1.6-.12.78-.11 1.39-.43.62-.32.99-.92.37-.6.37-1.55 0-1.11-.44-1.74-.43-.64-1.13-.95-.69-.3-1.53-.38-.83-.07-1.66-.07-.32 0-.57.01-.25.01-.46.01-.5 0-.68-.08-.19-.08-.19-.39 0-.11.02-.26.01-.14.05-.34.05-1.45.23-2.9.19-1.46.43-2.92t.51-2.91q.26-1.45.47-2.9 3.06-.35 6.03-.68 2.96-.33 6.06-.74.2 0 .2.34 0 .18-.04.29-.02.05-.1.33t-.19.7q-.12.42-.26.94-.15.51-.28 1.02-.14.51-.27.97-.13.46-.22.76-.17.53-.55.84-.39.31-.91.47-.53.16-1.14.21-.61.04-1.24.04h-1.06q-.53-.01-1.02-.01-.37 0-.63.05-.27.05-.45.22-.18.18-.26.52-.08.34-.08.9 1.84.1 3.42.57 1.58.48 2.76 1.4 1.17.93 1.84 2.34.67 1.41.67 3.39 0 1.84-.52 3.25-.51 1.41-1.39 2.46-.88 1.04-2.06 1.75-1.19.71-2.53 1.14-1.35.43-2.78.61-1.44.19-2.81.19-1.01 0-1.97-.11-.96-.1-1.68-.49-.08-.03-.17-.13-.09-.1-.09-.13Z"></path><rect width="16.01" height="25.69" x="-8.01" y="-12.85" fill="none" rx="0" ry="0" transform="translate(317.67 459.06)"></rect><path fill="#fff" d="M268.86 105.4q1.53 0 2.78.57 1.25.57 2.15 1.48.89.91 1.37 2.04.49 1.13.49 2.26 0 .99-.62 2-.61 1.01-1.71 1.81-1.1.81-2.65 1.31-1.55.5-3.4.5-.97 0-2.03-.19.06.69.4 1.19t.85.82q.52.32 1.17.47.66.16 1.35.16.77 0 1.49-.14t1.38-.36q.66-.23 1.27-.5.61-.28 1.16-.55.14-.03.25-.06.1-.02.2-.02l-.01.26q-.01.26-.01.72v1.13q-.01.66-.03 1.47.05.08.07.16.01.08.01.13 0 .19-.35.42-.36.22-.93.46-.57.25-1.3.47-.74.23-1.49.41-.76.19-1.47.29-.71.11-1.24.11-1.74 0-3.38-.61-1.63-.6-2.9-1.73-1.26-1.13-2.02-2.74-.76-1.61-.76-3.62 0-2.12.73-3.96.72-1.85 2.04-3.21 1.31-1.37 3.13-2.16 1.82-.79 4.01-.79m-.19 4.28q-.66 0-1.22.28-.55.29-1.01.81-.46.52-.8 1.26-.34.73-.55 1.62 1.66-.29 2.76-.62 1.09-.32 1.75-.65.67-.33.94-.66.27-.33.27-.64 0-.29-.21-.54-.22-.26-.54-.45-.33-.2-.7-.3-.38-.11-.69-.11"></path><rect width="16.7" height="18.82" x="-8.35" y="-9.41" fill="none" rx="0" ry="0" transform="translate(267.8 115.31)"></rect><path fill="#fff" d="M277.74 118.93q0-.01-.01-.02v-.03q0-.21.22-.21.15 0 .26.12.64.61 1.47 1 .83.38 1.8.38.26 0 .6-.05.33-.06.64-.19t.51-.35q.2-.21.2-.54 0-.35-.18-.65-.17-.3-.46-.49-.17-.11-.57-.39-.4-.29-.86-.61-.46-.32-.87-.61t-.57-.42q-.73-.55-1.15-1.11-.43-.57-.66-1.17-.22-.6-.29-1.26-.06-.67-.06-1.41 0-1.12.59-2.12.6-1 1.58-1.76.97-.76 2.21-1.2 1.24-.44 2.53-.44 1.06 0 2.1.32 1.03.32 1.91 1.09.08 1.02.12 2 .03.99.09 2.06 0 .21-.09.29-.1.07-.23.07-.11 0-.19-.08-.37-.36-.76-.7-.39-.35-.81-.61-.43-.27-.91-.44-.49-.17-1.04-.17-.33 0-.67.06-.34.05-.62.21-.27.15-.44.41-.17.26-.17.66 0 .47.12.8.11.34.53.67l2.99 2.03q.83.56 1.33 1.1.51.54.8 1.07.29.53.4 1.06.1.52.1 1.04 0 1.45-.67 2.55-.67 1.1-1.73 1.84-1.06.73-2.41 1.11-1.34.38-2.7.38-1.03 0-1.99-.22t-1.78-.67Z"></path><rect width="11.5" height="18.82" x="-5.75" y="-9.41" fill="none" rx="0" ry="0" transform="translate(283.98 115.31)"></rect><path fill="#fff" d="M300.04 110.96q-.22 1.69-.42 3.37-.21 1.69-.25 3.15 0 .63.09 1.05.1.42.28.66.19.24.45.35.26.1.58.1.51 0 1.13-.15.61-.16 1.22-.4.19-.08.33-.12.14-.04.23-.04.17 0 .22.15.06.14.11.5.06.37.17.98.12.61.37 1.55.02.08.03.13.01.06.01.11 0 .22-.17.32t-.56.23q-.66.22-1.39.45-.74.24-1.45.43-.72.19-1.38.32-.66.12-1.16.12-2.69 0-3.92-1.34-1.24-1.34-1.24-4.08 0-.46.04-.96.03-.49.08-1.02.16-1.61.28-3.05.12-1.44.25-2.77h-1.69q-.87 0-1.26-.07t-.39-.3q0-.06.16-.34.16-.29.41-.68.25-.39.54-.85.29-.45.56-.84.27-.4.46-.69.19-.29.24-.35h1.15q.14-1.23.23-2.06.09-.83.14-1.37.06-.55.11-.85.05-.3.1-.44.06-.15.15-.19.09-.04.23-.07.73-.15 1.4-.27.68-.12 1.36-.25.67-.12 1.38-.29.7-.17 1.45-.4.05 0 .07-.01h.06q.2 0 .2.12v.04q-.08.88-.25 2.46-.17 1.58-.38 3.58h4.32q.12 0 .25.09.12.09.12.3 0 .08-.2.58-.19.5-.54 1.3l-.59 1.31q-.11.24-.23.35-.12.11-.49.15Z"></path><rect width="14.46" height="23.54" x="-7.23" y="-11.77" fill="none" rx="0" ry="0" transform="translate(298.36 112.95)"></rect><path fill="#fff" d="M305.92 123.99q.04-.76.05-1.2l.03-.68v-.53q0-.09.01-.22.01-.12.03-.42.01-.3.05-.82l.08-1.4q.03-.53.1-.73.07-.2.36-.25 1.42 0 2.97-.01l2.91-.02q.15 0 .25.08.09.08.09.3l-.45 5.06q-.06.53-.12.74-.06.2-.36.23-1.37.02-2.81.03-1.45.02-3.01.02-.1 0-.14-.02-.04-.01-.04-.09Z"></path><rect width="6.93" height="6.46" x="-3.46" y="-3.23" fill="none" rx="0" ry="0" transform="translate(309.88 121.44)"></rect></svg></svg>